<mxfile host="app.diagrams.net" agent="Mozilla/5.0 (X11; Linux x86_64; rv:128.0) Gecko/20100101 Firefox/128.0" version="25.0.3">
  <diagram id="C5RBs43oDa-KdzZeNtuy" name="Page-1">
    <mxGraphModel dx="2762" dy="1523" grid="1" gridSize="10" guides="1" tooltips="1" connect="1" arrows="1" fold="1" page="1" pageScale="1" pageWidth="827" pageHeight="1169" math="0" shadow="0">
      <root>
        <mxCell id="WIyWlLk6GJQsqaUBKTNV-0" />
        <mxCell id="WIyWlLk6GJQsqaUBKTNV-1" parent="WIyWlLk6GJQsqaUBKTNV-0" />
        <mxCell id="JXa-VmJ6MgfcRFy7Ts8E-0" value="Receiver" style="swimlane;whiteSpace=wrap;html=1;" vertex="1" parent="WIyWlLk6GJQsqaUBKTNV-1">
          <mxGeometry x="160" y="40" width="240" height="1000" as="geometry" />
        </mxCell>
        <mxCell id="JXa-VmJ6MgfcRFy7Ts8E-39" value="&lt;p style=&quot;margin:0px;margin-top:4px;margin-left:10px;text-align:left;&quot;&gt;&lt;b&gt;act&lt;/b&gt;   [OfferProcedure]&lt;/p&gt;" style="html=1;shape=mxgraph.sysml.package;align=left;spacingLeft=5;verticalAlign=top;spacingTop=-3;labelX=135;html=1;overflow=fill;fillColor=none;" vertex="1" parent="JXa-VmJ6MgfcRFy7Ts8E-0">
          <mxGeometry x="-96" y="-20" width="700" height="1040" as="geometry" />
        </mxCell>
        <mxCell id="JXa-VmJ6MgfcRFy7Ts8E-18" value="Create request for product that costs 10 USDC" style="shape=rect;html=1;rounded=1;whiteSpace=wrap;align=center;" vertex="1" parent="JXa-VmJ6MgfcRFy7Ts8E-0">
          <mxGeometry x="40" y="80" width="160" height="80" as="geometry" />
        </mxCell>
        <mxCell id="JXa-VmJ6MgfcRFy7Ts8E-19" value="" style="shape=ellipse;html=1;fillColor=strokeColor;strokeWidth=2;verticalLabelPosition=bottom;verticalAlignment=top;perimeter=ellipsePerimeter;" vertex="1" parent="JXa-VmJ6MgfcRFy7Ts8E-0">
          <mxGeometry x="110" y="30" width="20" height="20" as="geometry" />
        </mxCell>
        <mxCell id="JXa-VmJ6MgfcRFy7Ts8E-23" value="" style="shape=rhombus;html=1;verticalLabelPosition=bottom;verticalAlignment=top;" vertex="1" parent="JXa-VmJ6MgfcRFy7Ts8E-0">
          <mxGeometry x="100" y="180" width="40" height="40" as="geometry" />
        </mxCell>
        <mxCell id="JXa-VmJ6MgfcRFy7Ts8E-24" value="" style="edgeStyle=elbowEdgeStyle;html=1;elbow=horizontal;align=right;verticalAlign=bottom;endArrow=none;rounded=0;labelBackgroundColor=none;startArrow=open;startSize=12;entryX=0.5;entryY=1;entryDx=0;entryDy=0;" edge="1" source="JXa-VmJ6MgfcRFy7Ts8E-23" parent="JXa-VmJ6MgfcRFy7Ts8E-0" target="JXa-VmJ6MgfcRFy7Ts8E-18">
          <mxGeometry relative="1" as="geometry">
            <mxPoint x="160" y="150" as="targetPoint" />
            <Array as="points">
              <mxPoint x="120" y="170" />
            </Array>
          </mxGeometry>
        </mxCell>
        <mxCell id="JXa-VmJ6MgfcRFy7Ts8E-26" value="&lt;div&gt;[receiver wants &lt;br&gt;&lt;/div&gt;&lt;div&gt;to cancel offer]&lt;/div&gt;" style="edgeStyle=elbowEdgeStyle;html=1;elbow=vertical;verticalAlign=bottom;endArrow=open;rounded=0;labelBackgroundColor=none;endSize=12;entryX=0.5;entryY=0;entryDx=0;entryDy=0;exitX=0.5;exitY=1;exitDx=0;exitDy=0;" edge="1" source="JXa-VmJ6MgfcRFy7Ts8E-23" parent="JXa-VmJ6MgfcRFy7Ts8E-0" target="JXa-VmJ6MgfcRFy7Ts8E-35">
          <mxGeometry x="1" y="40" relative="1" as="geometry">
            <mxPoint x="160" y="260" as="targetPoint" />
            <Array as="points">
              <mxPoint x="140" y="230" />
            </Array>
            <mxPoint as="offset" />
          </mxGeometry>
        </mxCell>
        <mxCell id="JXa-VmJ6MgfcRFy7Ts8E-29" value="" style="shape=rect;html=1;whiteSpace=wrap;align=center;" vertex="1" parent="JXa-VmJ6MgfcRFy7Ts8E-0">
          <mxGeometry x="200" y="110" width="10" height="20" as="geometry" />
        </mxCell>
        <mxCell id="JXa-VmJ6MgfcRFy7Ts8E-31" value="" style="edgeStyle=elbowEdgeStyle;html=1;elbow=horizontal;align=right;verticalAlign=bottom;endArrow=none;rounded=0;labelBackgroundColor=none;startArrow=open;startSize=12;entryX=0.5;entryY=1;entryDx=0;entryDy=0;exitX=0.5;exitY=0;exitDx=0;exitDy=0;" edge="1" parent="JXa-VmJ6MgfcRFy7Ts8E-0" source="JXa-VmJ6MgfcRFy7Ts8E-18" target="JXa-VmJ6MgfcRFy7Ts8E-19">
          <mxGeometry relative="1" as="geometry">
            <mxPoint x="230" y="140" as="targetPoint" />
            <mxPoint x="230" y="180" as="sourcePoint" />
          </mxGeometry>
        </mxCell>
        <mxCell id="JXa-VmJ6MgfcRFy7Ts8E-58" value="" style="edgeStyle=elbowEdgeStyle;html=1;elbow=horizontal;endArrow=open;labelBackgroundColor=none;strokeWidth=2;endSize=12;rounded=0;exitX=1;exitY=0.5;exitDx=0;exitDy=0;" edge="1" parent="JXa-VmJ6MgfcRFy7Ts8E-0" source="JXa-VmJ6MgfcRFy7Ts8E-46" target="JXa-VmJ6MgfcRFy7Ts8E-45">
          <mxGeometry relative="1" as="geometry">
            <mxPoint x="-100" y="280" as="sourcePoint" />
            <mxPoint x="120" y="280" as="targetPoint" />
          </mxGeometry>
        </mxCell>
        <mxCell id="JXa-VmJ6MgfcRFy7Ts8E-46" value="&lt;div&gt;From smart contract:&lt;br&gt;&lt;/div&gt;&lt;div&gt;10 USDC for product&lt;br&gt;&lt;/div&gt;5 USDC as deposit" style="shape=rect;html=1;whiteSpace=wrap;align=center;" vertex="1" parent="JXa-VmJ6MgfcRFy7Ts8E-0">
          <mxGeometry x="-160" y="250" width="130" height="60" as="geometry" />
        </mxCell>
        <mxCell id="JXa-VmJ6MgfcRFy7Ts8E-45" value="" style="shape=rect;html=1;whiteSpace=wrap;align=center;" vertex="1" parent="JXa-VmJ6MgfcRFy7Ts8E-0">
          <mxGeometry x="30" y="270" width="10" height="20" as="geometry" />
        </mxCell>
        <mxCell id="JXa-VmJ6MgfcRFy7Ts8E-35" value="Cancel request for product that costs 10 USDC" style="shape=rect;html=1;rounded=1;whiteSpace=wrap;align=center;" vertex="1" parent="JXa-VmJ6MgfcRFy7Ts8E-0">
          <mxGeometry x="40" y="240" width="160" height="80" as="geometry" />
        </mxCell>
        <mxCell id="JXa-VmJ6MgfcRFy7Ts8E-75" value="" style="shape=rhombus;html=1;verticalLabelPosition=top;verticalAlignment=bottom;" vertex="1" parent="JXa-VmJ6MgfcRFy7Ts8E-0">
          <mxGeometry x="100" y="540" width="40" height="40" as="geometry" />
        </mxCell>
        <mxCell id="JXa-VmJ6MgfcRFy7Ts8E-76" value="" style="edgeStyle=elbowEdgeStyle;html=1;elbow=horizontal;align=right;verticalAlign=bottom;rounded=0;labelBackgroundColor=none;endArrow=open;endSize=12;entryX=0.5;entryY=0;entryDx=0;entryDy=0;" edge="1" source="JXa-VmJ6MgfcRFy7Ts8E-75" parent="JXa-VmJ6MgfcRFy7Ts8E-0" target="JXa-VmJ6MgfcRFy7Ts8E-80">
          <mxGeometry relative="1" as="geometry">
            <mxPoint x="120" y="625" as="targetPoint" />
          </mxGeometry>
        </mxCell>
        <mxCell id="JXa-VmJ6MgfcRFy7Ts8E-80" value="Receiver does not confirm reception and funds are frozen in smart contract until offer is forfeited" style="shape=rect;html=1;rounded=1;whiteSpace=wrap;align=center;" vertex="1" parent="JXa-VmJ6MgfcRFy7Ts8E-0">
          <mxGeometry x="40" y="600" width="160" height="80" as="geometry" />
        </mxCell>
        <mxCell id="JXa-VmJ6MgfcRFy7Ts8E-82" value="Receiver confirms reception and funds are released from smart contract" style="shape=rect;html=1;rounded=1;whiteSpace=wrap;align=center;" vertex="1" parent="JXa-VmJ6MgfcRFy7Ts8E-0">
          <mxGeometry x="40" y="720" width="160" height="80" as="geometry" />
        </mxCell>
        <mxCell id="JXa-VmJ6MgfcRFy7Ts8E-93" value="" style="shape=rect;html=1;whiteSpace=wrap;align=center;" vertex="1" parent="JXa-VmJ6MgfcRFy7Ts8E-0">
          <mxGeometry x="270" y="870" width="10" height="20" as="geometry" />
        </mxCell>
        <mxCell id="JXa-VmJ6MgfcRFy7Ts8E-94" value="" style="html=1;shape=mxgraph.sysml.actFinal;strokeWidth=2;verticalLabelPosition=bottom;verticalAlignment=top;" vertex="1" parent="JXa-VmJ6MgfcRFy7Ts8E-0">
          <mxGeometry x="110" y="350" width="20" height="20" as="geometry" />
        </mxCell>
        <mxCell id="JXa-VmJ6MgfcRFy7Ts8E-95" value="" style="edgeStyle=elbowEdgeStyle;html=1;elbow=horizontal;align=right;verticalAlign=bottom;endArrow=none;rounded=0;labelBackgroundColor=none;startArrow=open;startSize=12;entryX=0.5;entryY=1;entryDx=0;entryDy=0;exitX=0.5;exitY=0;exitDx=0;exitDy=0;exitPerimeter=0;" edge="1" parent="JXa-VmJ6MgfcRFy7Ts8E-0" source="JXa-VmJ6MgfcRFy7Ts8E-94" target="JXa-VmJ6MgfcRFy7Ts8E-35">
          <mxGeometry relative="1" as="geometry">
            <mxPoint x="130" y="170" as="targetPoint" />
            <mxPoint x="130" y="190" as="sourcePoint" />
            <Array as="points" />
          </mxGeometry>
        </mxCell>
        <mxCell id="JXa-VmJ6MgfcRFy7Ts8E-98" value="" style="edgeStyle=elbowEdgeStyle;html=1;elbow=horizontal;align=right;verticalAlign=bottom;endArrow=none;rounded=0;labelBackgroundColor=none;startArrow=open;startSize=12;entryX=0.5;entryY=1;entryDx=0;entryDy=0;exitX=0.5;exitY=0;exitDx=0;exitDy=0;exitPerimeter=0;" edge="1" source="JXa-VmJ6MgfcRFy7Ts8E-99" parent="JXa-VmJ6MgfcRFy7Ts8E-0">
          <mxGeometry relative="1" as="geometry">
            <mxPoint x="360" y="910" as="targetPoint" />
            <mxPoint x="370" y="780" as="sourcePoint" />
            <Array as="points" />
          </mxGeometry>
        </mxCell>
        <mxCell id="JXa-VmJ6MgfcRFy7Ts8E-1" value="Sender" style="swimlane;whiteSpace=wrap;html=1;" vertex="1" parent="WIyWlLk6GJQsqaUBKTNV-1">
          <mxGeometry x="400" y="40" width="240" height="1000" as="geometry" />
        </mxCell>
        <mxCell id="JXa-VmJ6MgfcRFy7Ts8E-53" value="" style="shape=rhombus;html=1;verticalLabelPosition=bottom;verticalAlignment=top;" vertex="1" parent="JXa-VmJ6MgfcRFy7Ts8E-1">
          <mxGeometry x="100" y="380" width="40" height="40" as="geometry" />
        </mxCell>
        <mxCell id="JXa-VmJ6MgfcRFy7Ts8E-99" value="" style="html=1;shape=mxgraph.sysml.actFinal;strokeWidth=2;verticalLabelPosition=bottom;verticalAlignment=top;" vertex="1" parent="JXa-VmJ6MgfcRFy7Ts8E-1">
          <mxGeometry x="110" y="950" width="20" height="20" as="geometry" />
        </mxCell>
        <mxCell id="JXa-VmJ6MgfcRFy7Ts8E-38" value="&lt;div&gt;To smart contract:&lt;br&gt;&lt;/div&gt;&lt;div&gt;10 USDC for product&lt;br&gt;&lt;/div&gt;&lt;div&gt;5 USDC as deposit&lt;br&gt;&lt;/div&gt;" style="shape=rect;html=1;whiteSpace=wrap;align=center;" vertex="1" parent="WIyWlLk6GJQsqaUBKTNV-1">
          <mxGeometry x="697" y="130" width="130" height="60" as="geometry" />
        </mxCell>
        <mxCell id="JXa-VmJ6MgfcRFy7Ts8E-41" value="Accept request for product that costs 10 USDC" style="shape=rect;html=1;rounded=1;whiteSpace=wrap;align=center;" vertex="1" parent="WIyWlLk6GJQsqaUBKTNV-1">
          <mxGeometry x="440" y="200" width="160" height="80" as="geometry" />
        </mxCell>
        <mxCell id="JXa-VmJ6MgfcRFy7Ts8E-25" value="[else]" style="edgeStyle=elbowEdgeStyle;html=1;elbow=vertical;verticalAlign=bottom;endArrow=open;rounded=0;labelBackgroundColor=none;endSize=12;entryX=0;entryY=0.5;entryDx=0;entryDy=0;" edge="1" source="JXa-VmJ6MgfcRFy7Ts8E-23" parent="WIyWlLk6GJQsqaUBKTNV-1" target="JXa-VmJ6MgfcRFy7Ts8E-41">
          <mxGeometry relative="1" as="geometry">
            <mxPoint x="340" y="240" as="targetPoint" />
          </mxGeometry>
        </mxCell>
        <mxCell id="JXa-VmJ6MgfcRFy7Ts8E-42" value="To smart contract:&lt;div&gt;5 USDC as deposit&lt;br&gt;&lt;/div&gt;" style="shape=rect;html=1;whiteSpace=wrap;align=center;" vertex="1" parent="WIyWlLk6GJQsqaUBKTNV-1">
          <mxGeometry x="697" y="210" width="130" height="60" as="geometry" />
        </mxCell>
        <mxCell id="JXa-VmJ6MgfcRFy7Ts8E-43" value="" style="edgeStyle=elbowEdgeStyle;html=1;elbow=horizontal;endArrow=open;labelBackgroundColor=none;strokeWidth=2;endSize=12;rounded=0;entryX=0;entryY=0.5;entryDx=0;entryDy=0;exitX=1;exitY=0.5;exitDx=0;exitDy=0;" edge="1" target="JXa-VmJ6MgfcRFy7Ts8E-42" parent="WIyWlLk6GJQsqaUBKTNV-1" source="JXa-VmJ6MgfcRFy7Ts8E-44">
          <mxGeometry relative="1" as="geometry">
            <mxPoint x="330" y="239.83" as="sourcePoint" />
            <mxPoint x="350" y="240" as="targetPoint" />
          </mxGeometry>
        </mxCell>
        <mxCell id="JXa-VmJ6MgfcRFy7Ts8E-34" value="" style="edgeStyle=elbowEdgeStyle;html=1;elbow=horizontal;endArrow=open;labelBackgroundColor=none;strokeWidth=2;endSize=12;rounded=0;entryX=0;entryY=0.5;entryDx=0;entryDy=0;exitX=1;exitY=0.5;exitDx=0;exitDy=0;" edge="1" source="JXa-VmJ6MgfcRFy7Ts8E-29" target="JXa-VmJ6MgfcRFy7Ts8E-38" parent="WIyWlLk6GJQsqaUBKTNV-1">
          <mxGeometry relative="1" as="geometry">
            <mxPoint x="330" y="159.83" as="sourcePoint" />
            <mxPoint x="350" y="160" as="targetPoint" />
          </mxGeometry>
        </mxCell>
        <mxCell id="JXa-VmJ6MgfcRFy7Ts8E-44" value="" style="shape=rect;html=1;whiteSpace=wrap;align=center;" vertex="1" parent="WIyWlLk6GJQsqaUBKTNV-1">
          <mxGeometry x="600" y="230" width="10" height="20" as="geometry" />
        </mxCell>
        <mxCell id="JXa-VmJ6MgfcRFy7Ts8E-52" value="" style="edgeStyle=elbowEdgeStyle;html=1;elbow=horizontal;align=right;verticalAlign=bottom;endArrow=none;rounded=0;labelBackgroundColor=none;startArrow=open;startSize=12;" edge="1" source="JXa-VmJ6MgfcRFy7Ts8E-53" parent="WIyWlLk6GJQsqaUBKTNV-1">
          <mxGeometry relative="1" as="geometry">
            <mxPoint x="560" y="280" as="targetPoint" />
            <Array as="points">
              <mxPoint x="520" y="300" />
            </Array>
          </mxGeometry>
        </mxCell>
        <mxCell id="JXa-VmJ6MgfcRFy7Ts8E-54" value="&lt;div&gt;[sender purchases product]&lt;/div&gt;" style="edgeStyle=elbowEdgeStyle;html=1;elbow=horizontal;verticalAlign=bottom;endArrow=open;rounded=0;labelBackgroundColor=none;endSize=12;entryX=0.5;entryY=0;entryDx=0;entryDy=0;exitX=0.5;exitY=1;exitDx=0;exitDy=0;" edge="1" source="JXa-VmJ6MgfcRFy7Ts8E-53" target="JXa-VmJ6MgfcRFy7Ts8E-55" parent="WIyWlLk6GJQsqaUBKTNV-1">
          <mxGeometry y="70" relative="1" as="geometry">
            <mxPoint x="560" y="390" as="targetPoint" />
            <mxPoint x="520" y="460" as="sourcePoint" />
            <Array as="points">
              <mxPoint x="520" y="470" />
            </Array>
            <mxPoint as="offset" />
          </mxGeometry>
        </mxCell>
        <mxCell id="JXa-VmJ6MgfcRFy7Ts8E-55" value="Purchase product that costs 10 USDC and send to receiver address" style="shape=rect;html=1;rounded=1;whiteSpace=wrap;align=center;" vertex="1" parent="WIyWlLk6GJQsqaUBKTNV-1">
          <mxGeometry x="440" y="480" width="160" height="80" as="geometry" />
        </mxCell>
        <mxCell id="JXa-VmJ6MgfcRFy7Ts8E-63" value="To product supplier:&lt;div&gt;10 USDC for product&lt;br&gt;&lt;/div&gt;" style="shape=rect;html=1;whiteSpace=wrap;align=center;" vertex="1" parent="WIyWlLk6GJQsqaUBKTNV-1">
          <mxGeometry x="697" y="490" width="130" height="60" as="geometry" />
        </mxCell>
        <mxCell id="JXa-VmJ6MgfcRFy7Ts8E-64" value="" style="edgeStyle=elbowEdgeStyle;html=1;elbow=horizontal;endArrow=open;labelBackgroundColor=none;strokeWidth=2;endSize=12;rounded=0;entryX=0;entryY=0.5;entryDx=0;entryDy=0;exitX=1;exitY=0.5;exitDx=0;exitDy=0;" edge="1" source="JXa-VmJ6MgfcRFy7Ts8E-65" target="JXa-VmJ6MgfcRFy7Ts8E-63" parent="WIyWlLk6GJQsqaUBKTNV-1">
          <mxGeometry relative="1" as="geometry">
            <mxPoint x="330" y="519.83" as="sourcePoint" />
            <mxPoint x="350" y="520" as="targetPoint" />
          </mxGeometry>
        </mxCell>
        <mxCell id="JXa-VmJ6MgfcRFy7Ts8E-65" value="" style="shape=rect;html=1;whiteSpace=wrap;align=center;" vertex="1" parent="WIyWlLk6GJQsqaUBKTNV-1">
          <mxGeometry x="600" y="510" width="10" height="20" as="geometry" />
        </mxCell>
        <mxCell id="JXa-VmJ6MgfcRFy7Ts8E-67" value="&lt;div&gt;[product reaches receiver]&lt;/div&gt;" style="edgeStyle=elbowEdgeStyle;html=1;elbow=horizontal;verticalAlign=bottom;endArrow=open;rounded=0;labelBackgroundColor=none;endSize=12;entryX=1;entryY=0.5;entryDx=0;entryDy=0;" edge="1" source="JXa-VmJ6MgfcRFy7Ts8E-66" parent="WIyWlLk6GJQsqaUBKTNV-1" target="JXa-VmJ6MgfcRFy7Ts8E-82">
          <mxGeometry x="0.4737" y="-10" relative="1" as="geometry">
            <mxPoint x="280" y="760" as="targetPoint" />
            <Array as="points">
              <mxPoint x="520" y="740" />
            </Array>
            <mxPoint as="offset" />
          </mxGeometry>
        </mxCell>
        <mxCell id="JXa-VmJ6MgfcRFy7Ts8E-68" value="" style="edgeStyle=elbowEdgeStyle;html=1;elbow=horizontal;align=right;verticalAlign=bottom;endArrow=none;rounded=0;labelBackgroundColor=none;startArrow=open;startSize=12;" edge="1" source="JXa-VmJ6MgfcRFy7Ts8E-66" parent="WIyWlLk6GJQsqaUBKTNV-1">
          <mxGeometry relative="1" as="geometry">
            <mxPoint x="560" y="560" as="targetPoint" />
            <Array as="points">
              <mxPoint x="520" y="580" />
            </Array>
          </mxGeometry>
        </mxCell>
        <mxCell id="JXa-VmJ6MgfcRFy7Ts8E-66" value="" style="shape=rhombus;html=1;verticalLabelPosition=bottom;verticalAlignment=top;" vertex="1" parent="WIyWlLk6GJQsqaUBKTNV-1">
          <mxGeometry x="500" y="580" width="40" height="40" as="geometry" />
        </mxCell>
        <mxCell id="JXa-VmJ6MgfcRFy7Ts8E-77" value="" style="edgeStyle=elbowEdgeStyle;html=1;elbow=vertical;verticalAlign=bottom;startArrow=open;endArrow=none;rounded=0;labelBackgroundColor=none;startSize=12;entryX=0;entryY=0.5;entryDx=0;entryDy=0;" edge="1" source="JXa-VmJ6MgfcRFy7Ts8E-75" parent="WIyWlLk6GJQsqaUBKTNV-1" target="JXa-VmJ6MgfcRFy7Ts8E-66">
          <mxGeometry relative="1" as="geometry">
            <mxPoint x="380" y="605" as="targetPoint" />
          </mxGeometry>
        </mxCell>
        <mxCell id="JXa-VmJ6MgfcRFy7Ts8E-79" value="[product does not reach receiver]" style="edgeLabel;html=1;align=center;verticalAlign=middle;resizable=0;points=[];" vertex="1" connectable="0" parent="JXa-VmJ6MgfcRFy7Ts8E-77">
          <mxGeometry x="0.22" y="-1" relative="1" as="geometry">
            <mxPoint x="-8" y="-11" as="offset" />
          </mxGeometry>
        </mxCell>
        <mxCell id="JXa-VmJ6MgfcRFy7Ts8E-86" value="&lt;div&gt;From smart contract:&lt;br&gt;&lt;/div&gt;5 USDC as deposit" style="shape=rect;html=1;whiteSpace=wrap;align=center;" vertex="1" parent="WIyWlLk6GJQsqaUBKTNV-1">
          <mxGeometry y="770" width="130" height="60" as="geometry" />
        </mxCell>
        <mxCell id="JXa-VmJ6MgfcRFy7Ts8E-87" value="" style="edgeStyle=elbowEdgeStyle;html=1;elbow=horizontal;endArrow=open;labelBackgroundColor=none;strokeWidth=2;endSize=12;rounded=0;exitX=1;exitY=0.5;exitDx=0;exitDy=0;" edge="1" source="JXa-VmJ6MgfcRFy7Ts8E-86" target="JXa-VmJ6MgfcRFy7Ts8E-88" parent="WIyWlLk6GJQsqaUBKTNV-1">
          <mxGeometry relative="1" as="geometry">
            <mxPoint x="60" y="800" as="sourcePoint" />
            <mxPoint x="280" y="800" as="targetPoint" />
          </mxGeometry>
        </mxCell>
        <mxCell id="JXa-VmJ6MgfcRFy7Ts8E-88" value="" style="shape=rect;html=1;whiteSpace=wrap;align=center;" vertex="1" parent="WIyWlLk6GJQsqaUBKTNV-1">
          <mxGeometry x="190" y="790" width="10" height="20" as="geometry" />
        </mxCell>
        <mxCell id="JXa-VmJ6MgfcRFy7Ts8E-73" value="&lt;div&gt;[sender does not purchase product]&lt;/div&gt;" style="edgeStyle=elbowEdgeStyle;html=1;elbow=horizontal;verticalAlign=bottom;endArrow=open;rounded=0;labelBackgroundColor=none;endSize=12;exitX=0;exitY=0.5;exitDx=0;exitDy=0;" edge="1" parent="WIyWlLk6GJQsqaUBKTNV-1" source="JXa-VmJ6MgfcRFy7Ts8E-53" target="JXa-VmJ6MgfcRFy7Ts8E-75">
          <mxGeometry x="-0.4494" relative="1" as="geometry">
            <mxPoint x="300" y="400" as="targetPoint" />
            <mxPoint x="290" y="430" as="sourcePoint" />
            <Array as="points">
              <mxPoint x="280" y="520" />
            </Array>
            <mxPoint as="offset" />
          </mxGeometry>
        </mxCell>
        <mxCell id="JXa-VmJ6MgfcRFy7Ts8E-91" value="&lt;div&gt;From smart contract:&lt;br&gt;&lt;/div&gt;&lt;div&gt;10 USDC for product&lt;br&gt;&lt;/div&gt;5 USDC as deposit" style="shape=rect;html=1;whiteSpace=wrap;align=center;" vertex="1" parent="WIyWlLk6GJQsqaUBKTNV-1">
          <mxGeometry y="890" width="130" height="60" as="geometry" />
        </mxCell>
        <mxCell id="JXa-VmJ6MgfcRFy7Ts8E-92" value="" style="edgeStyle=elbowEdgeStyle;html=1;elbow=horizontal;endArrow=open;labelBackgroundColor=none;strokeWidth=2;endSize=12;rounded=0;exitX=1;exitY=0.5;exitDx=0;exitDy=0;" edge="1" source="JXa-VmJ6MgfcRFy7Ts8E-91" target="JXa-VmJ6MgfcRFy7Ts8E-93" parent="WIyWlLk6GJQsqaUBKTNV-1">
          <mxGeometry relative="1" as="geometry">
            <mxPoint x="60" y="920" as="sourcePoint" />
            <mxPoint x="280" y="920" as="targetPoint" />
          </mxGeometry>
        </mxCell>
        <mxCell id="JXa-VmJ6MgfcRFy7Ts8E-89" value="Sender receives funds from smart contract" style="shape=rect;html=1;rounded=1;whiteSpace=wrap;align=center;" vertex="1" parent="WIyWlLk6GJQsqaUBKTNV-1">
          <mxGeometry x="440" y="880" width="160" height="80" as="geometry" />
        </mxCell>
        <mxCell id="JXa-VmJ6MgfcRFy7Ts8E-90" value="" style="edgeStyle=orthogonalEdgeStyle;html=1;elbow=horizontal;align=right;verticalAlign=bottom;rounded=0;labelBackgroundColor=none;endArrow=open;endSize=12;exitX=0.5;exitY=1;exitDx=0;exitDy=0;entryX=0.5;entryY=0;entryDx=0;entryDy=0;" edge="1" parent="WIyWlLk6GJQsqaUBKTNV-1" source="JXa-VmJ6MgfcRFy7Ts8E-82" target="JXa-VmJ6MgfcRFy7Ts8E-89">
          <mxGeometry relative="1" as="geometry">
            <mxPoint x="520" y="890" as="targetPoint" />
            <mxPoint x="280" y="850" as="sourcePoint" />
          </mxGeometry>
        </mxCell>
        <mxCell id="JXa-VmJ6MgfcRFy7Ts8E-96" value="" style="edgeStyle=elbowEdgeStyle;html=1;elbow=horizontal;align=right;verticalAlign=bottom;endArrow=none;rounded=0;labelBackgroundColor=none;startArrow=open;startSize=12;entryX=1;entryY=0.5;entryDx=0;entryDy=0;exitX=0;exitY=0.5;exitDx=0;exitDy=0;exitPerimeter=0;" edge="1" source="JXa-VmJ6MgfcRFy7Ts8E-97" parent="WIyWlLk6GJQsqaUBKTNV-1" target="JXa-VmJ6MgfcRFy7Ts8E-80">
          <mxGeometry relative="1" as="geometry">
            <mxPoint x="440" y="640" as="targetPoint" />
            <mxPoint x="450" y="510" as="sourcePoint" />
            <Array as="points" />
          </mxGeometry>
        </mxCell>
        <mxCell id="JXa-VmJ6MgfcRFy7Ts8E-97" value="" style="html=1;shape=mxgraph.sysml.actFinal;strokeWidth=2;verticalLabelPosition=bottom;verticalAlignment=top;" vertex="1" parent="WIyWlLk6GJQsqaUBKTNV-1">
          <mxGeometry x="430" y="670" width="20" height="20" as="geometry" />
        </mxCell>
      </root>
    </mxGraphModel>
  </diagram>
</mxfile>
